<!DOCTYPE svg PUBLIC "-//W3C//DTD SVG 20010904//EN" "http://www.w3.org/TR/2001/REC-SVG-20010904/DTD/svg10.dtd">
<svg version="1.0" xmlns="http://www.w3.org/2000/svg" width="299px" height="206px" viewBox="0 0 2990 2060" preserveAspectRatio="xMidYMid meet">
<g id="layer101" fill="#3e3e3e" stroke="none">
 <path d="M1357 1893 c-2 -4 -10 -24 -16 -43 -19 -55 -155 -154 -321 -232 -47 -23 -100 -52 -117 -65 -37 -27 -122 -137 -204 -263 -31 -47 -72 -110 -92 -140 -62 -96 -84 -152 -102 -257 -25 -153 -24 -248 5 -303 67 -132 177 -228 367 -322 134 -66 207 -82 304 -67 69 11 150 65 203 137 l39 52 23 -40 c74 -129 201 -228 341 -264 115 -30 200 -16 334 55 106 57 280 263 308 366 6 21 11 74 11 118 0 68 -5 92 -35 165 -20 47 -50 110 -69 140 -18 30 -54 100 -80 154 -56 117 -108 195 -168 253 -42 40 -192 143 -209 143 -5 0 -20 22 -34 50 -33 65 -130 177 -186 215 -24 17 -51 36 -59 44 -16 15 -181 96 -217 106 -12 3 -23 2 -26 -2z"/>
 </g>
<g id="layer102" fill="#f4777d" stroke="none">
 <path d="M1384 1655 c-60 -52 -176 -124 -299 -185 -101 -50 -133 -84 -249 -260 -155 -237 -155 -235 -177 -376 -17 -103 -19 -135 -10 -165 14 -47 87 -128 169 -186 71 -51 244 -133 282 -133 112 0 188 91 253 301 4 13 16 14 83 6 44 -5 80 -10 81 -11 2 -2 12 -40 24 -86 25 -102 39 -130 96 -198 82 -96 209 -148 301 -123 89 23 144 59 223 150 106 121 120 148 121 223 1 51 -5 78 -32 138 -18 41 -45 93 -59 115 -15 22 -52 92 -83 156 -67 138 -140 223 -244 284 -89 52 -130 89 -156 139 -42 84 -152 191 -244 239 -31 16 -31 16 -80 -28z"/>
 </g>

</svg>