<!DOCTYPE svg PUBLIC "-//W3C//DTD SVG 20010904//EN" "http://www.w3.org/TR/2001/REC-SVG-20010904/DTD/svg10.dtd">
<svg version="1.0" xmlns="http://www.w3.org/2000/svg" width="299px" height="206px" viewBox="0 0 2990 2060" preserveAspectRatio="xMidYMid meet">
<g id="layer101" fill="#3e3e3e" fill-rule="evenodd">
<path d="M1356 1892 C1354 1888,1347 1869,1340 1850 C1322 1794,1186 1696,1020 1617 C973 1595,920 1566,902 1553 C866 1526,781 1416,698 1290 C668 1243,627 1180,607 1150 C544 1053,522 998,505 892 C479 740,481 645,509 590 C577 457,687 361,876 268 C1011 201,1084 185,1180 200 C1249 211,1330 266,1383 337 L1423 390 1446 350 C1519 220,1646 122,1787 85 C1902 55,1987 70,2121 141 C2226 197,2400 404,2429 506 C2435 527,2439 581,2439 625 C2439 693,2434 717,2404 790 C2385 836,2354 899,2336 930 C2317 960,2281 1029,2255 1083 C2200 1200,2148 1279,2088 1336 C2045 1377,1895 1480,1878 1480 C1874 1480,1858 1502,1845 1529 C1812 1594,1715 1706,1659 1745 C1634 1761,1608 1781,1600 1789 C1584 1804,1412 1886,1380 1895 C1369 1897,1358 1896,1356 1892 M1382 1656 C1325 1604,1212 1533,1085 1470 C984 1419,952 1386,836 1210 C680 973,681 974,658 834 C642 731,640 698,649 669 C663 622,736 541,817 482 C889 431,1062 350,1100 350 C1211 350,1287 440,1353 650 C1357 664,1368 665,1436 656 C1479 651,1516 646,1517 645 C1518 644,1529 605,1540 559 C1565 458,1579 430,1637 362 C1718 266,1845 214,1938 238 C2027 261,2081 298,2160 388 C2266 509,2281 536,2282 612 C2283 662,2276 689,2250 750 C2232 791,2205 843,2190 865 C2175 887,2138 957,2107 1021 C2041 1159,1968 1244,1863 1305 C1774 1357,1733 1393,1708 1444 C1665 1528,1551 1639,1460 1685 C1430 1699,1429 1699,1382 1656 " />
</g>

</svg>